<mxfile host="app.diagrams.net" modified="2023-12-20T07:36:11.894Z" agent="Mozilla/5.0 (Windows NT 10.0; Win64; x64) AppleWebKit/537.36 (KHTML, like Gecko) Chrome/119.0.0.0 Safari/537.36" etag="J7FdkZZUqvwxQ2G24-ox" version="22.1.11" type="github" pages="2">
  <diagram id="C5RBs43oDa-KdzZeNtuy" name="链路">
    <mxGraphModel dx="1434" dy="800" grid="1" gridSize="10" guides="1" tooltips="1" connect="1" arrows="1" fold="1" page="1" pageScale="1" pageWidth="827" pageHeight="1169" math="0" shadow="0">
      <root>
        <mxCell id="WIyWlLk6GJQsqaUBKTNV-0" />
        <mxCell id="WIyWlLk6GJQsqaUBKTNV-1" parent="WIyWlLk6GJQsqaUBKTNV-0" />
        <mxCell id="oa3ZVJ6fP3VuzW_qzXwp-2" style="edgeStyle=orthogonalEdgeStyle;rounded=0;orthogonalLoop=1;jettySize=auto;html=1;exitX=1;exitY=0.5;exitDx=0;exitDy=0;" edge="1" parent="WIyWlLk6GJQsqaUBKTNV-1" source="oa3ZVJ6fP3VuzW_qzXwp-0" target="oa3ZVJ6fP3VuzW_qzXwp-1">
          <mxGeometry relative="1" as="geometry" />
        </mxCell>
        <mxCell id="oa3ZVJ6fP3VuzW_qzXwp-0" value="代办A" style="rounded=1;whiteSpace=wrap;html=1;fillColor=#d5e8d4;strokeColor=#82b366;" vertex="1" parent="WIyWlLk6GJQsqaUBKTNV-1">
          <mxGeometry x="100" y="140" width="120" height="60" as="geometry" />
        </mxCell>
        <mxCell id="oa3ZVJ6fP3VuzW_qzXwp-4" style="rounded=0;orthogonalLoop=1;jettySize=auto;html=1;exitX=1;exitY=0.5;exitDx=0;exitDy=0;entryX=0;entryY=0.5;entryDx=0;entryDy=0;" edge="1" parent="WIyWlLk6GJQsqaUBKTNV-1" source="oa3ZVJ6fP3VuzW_qzXwp-1" target="oa3ZVJ6fP3VuzW_qzXwp-3">
          <mxGeometry relative="1" as="geometry" />
        </mxCell>
        <mxCell id="oa3ZVJ6fP3VuzW_qzXwp-9" style="rounded=0;orthogonalLoop=1;jettySize=auto;html=1;exitX=1;exitY=0.5;exitDx=0;exitDy=0;entryX=0;entryY=0.5;entryDx=0;entryDy=0;" edge="1" parent="WIyWlLk6GJQsqaUBKTNV-1" source="oa3ZVJ6fP3VuzW_qzXwp-1" target="oa3ZVJ6fP3VuzW_qzXwp-8">
          <mxGeometry relative="1" as="geometry" />
        </mxCell>
        <mxCell id="oa3ZVJ6fP3VuzW_qzXwp-1" value="仓A" style="rounded=1;whiteSpace=wrap;html=1;fillColor=#f8cecc;strokeColor=#b85450;" vertex="1" parent="WIyWlLk6GJQsqaUBKTNV-1">
          <mxGeometry x="280" y="140" width="120" height="60" as="geometry" />
        </mxCell>
        <mxCell id="oa3ZVJ6fP3VuzW_qzXwp-7" style="edgeStyle=orthogonalEdgeStyle;rounded=0;orthogonalLoop=1;jettySize=auto;html=1;exitX=1;exitY=0.5;exitDx=0;exitDy=0;entryX=0;entryY=0.5;entryDx=0;entryDy=0;" edge="1" parent="WIyWlLk6GJQsqaUBKTNV-1" source="oa3ZVJ6fP3VuzW_qzXwp-3" target="oa3ZVJ6fP3VuzW_qzXwp-5">
          <mxGeometry relative="1" as="geometry" />
        </mxCell>
        <mxCell id="oa3ZVJ6fP3VuzW_qzXwp-3" value="仓B" style="rounded=1;whiteSpace=wrap;html=1;fillColor=#f8cecc;strokeColor=#b85450;" vertex="1" parent="WIyWlLk6GJQsqaUBKTNV-1">
          <mxGeometry x="490" y="90" width="120" height="60" as="geometry" />
        </mxCell>
        <mxCell id="oa3ZVJ6fP3VuzW_qzXwp-5" value="1001店" style="rounded=1;whiteSpace=wrap;html=1;fillColor=#dae8fc;strokeColor=#6c8ebf;" vertex="1" parent="WIyWlLk6GJQsqaUBKTNV-1">
          <mxGeometry x="700" y="90" width="120" height="60" as="geometry" />
        </mxCell>
        <mxCell id="oa3ZVJ6fP3VuzW_qzXwp-8" value="1002店" style="rounded=1;whiteSpace=wrap;html=1;fillColor=#dae8fc;strokeColor=#6c8ebf;" vertex="1" parent="WIyWlLk6GJQsqaUBKTNV-1">
          <mxGeometry x="490" y="220" width="120" height="60" as="geometry" />
        </mxCell>
      </root>
    </mxGraphModel>
  </diagram>
  <diagram id="eNyvPat1FonC8B1RWDVC" name="流程">
    <mxGraphModel dx="1434" dy="800" grid="1" gridSize="10" guides="1" tooltips="1" connect="1" arrows="1" fold="1" page="1" pageScale="1" pageWidth="827" pageHeight="1169" math="0" shadow="0">
      <root>
        <mxCell id="0" />
        <mxCell id="1" parent="0" />
      </root>
    </mxGraphModel>
  </diagram>
</mxfile>
